<svg width="43" height="43" viewBox="0 0 43 43" fill="none" xmlns="http://www.w3.org/2000/svg">
<path d="M43 21.5C43 27.2022 40.7348 32.6708 36.7028 36.7028C32.6708 40.7348 27.2022 43 21.5 43C15.7978 43 10.3292 40.7348 6.2972 36.7028C2.26517 32.6708 0 27.2022 0 21.5C0 15.7978 2.26517 10.3292 6.2972 6.2972C10.3292 2.26517 15.7978 0 21.5 0C27.2022 0 32.6708 2.26517 36.7028 6.2972C40.7348 10.3292 43 15.7978 43 21.5ZM14.7705 16.2137H16.9877C17.3586 16.2137 17.6542 15.91 17.7026 15.5418C17.9444 13.7788 19.1538 12.4942 21.3092 12.4942C23.1528 12.4942 24.8406 13.416 24.8406 15.6332C24.8406 17.3398 23.8354 18.1245 22.2471 19.3178C20.4384 20.6319 19.006 22.1665 19.1081 24.6578L19.1162 25.241C19.119 25.4173 19.191 25.5855 19.3167 25.7092C19.4424 25.8328 19.6117 25.9021 19.7881 25.9021H21.9676C22.1458 25.9021 22.3167 25.8313 22.4427 25.7053C22.5687 25.5793 22.6395 25.4084 22.6395 25.2302V24.9481C22.6395 23.0184 23.3732 22.4567 25.3539 20.9544C26.9906 19.7101 28.6971 18.3288 28.6971 15.4289C28.6971 11.3681 25.2679 9.40625 21.5134 9.40625C18.1084 9.40625 14.3781 10.9919 14.1228 15.5499C14.1191 15.6367 14.1332 15.7233 14.1643 15.8044C14.1953 15.8856 14.2426 15.9595 14.3033 16.0217C14.364 16.0838 14.4367 16.1329 14.517 16.166C14.5974 16.199 14.6836 16.2152 14.7705 16.2137ZM21.0189 33.5293C22.6583 33.5293 23.7844 32.4704 23.7844 31.0379C23.7844 29.5544 22.6556 28.5117 21.0189 28.5117C19.4494 28.5117 18.3072 29.5544 18.3072 31.0379C18.3072 32.4704 19.4494 33.5293 21.0216 33.5293H21.0189Z" fill="#129E40"/>
</svg>
