<svg width="57" height="57" viewBox="0 0 57 57" fill="none" xmlns="http://www.w3.org/2000/svg">
<path d="M54.3281 18.6141C48.8063 13.6266 43.2844 8.55 37.7625 3.5625C29.6578 15.8531 15.9422 26.8078 2.93906 34.7344C2.58281 36.4266 2.22656 38.0297 1.78125 39.6328C7.48125 44.7984 13.1813 50.0531 18.8813 55.2188C32.3297 47.8266 46.5797 37.3172 55.2188 25.3828C54.9516 23.1562 54.5953 20.9297 54.3281 18.6141Z" fill="#699635"/>
<path d="M19.95 48.6281C14.3391 43.4625 8.72813 38.2969 3.11719 33.2203C17.1 25.2937 28.8562 14.5172 37.4953 1.78125C43.1062 6.94688 48.7172 12.0234 54.3281 17.1891C45.6891 29.925 33.9328 40.7016 19.95 48.6281Z" fill="#83BF4F"/>
<path d="M18.525 45.2437C14.7844 41.8594 11.0438 38.3859 7.30313 35.0016C7.57032 34.8234 7.74844 34.7344 8.01563 34.5562C8.72813 34.1109 8.90626 33.3094 8.28282 32.6859L7.74844 32.1516C19.0594 25.2047 28.8563 16.2984 36.5156 5.96719L37.05 6.50156C37.6734 7.03594 38.5641 6.94688 39.0984 6.32344C39.2766 6.14531 39.3656 5.87813 39.5438 5.7C43.2844 9.08438 47.025 12.5578 50.7656 15.9422C50.5875 16.1203 50.4984 16.3875 50.3203 16.5656C49.7859 17.2781 49.875 18.2578 50.4985 18.8813L51.0328 19.4156C43.3734 29.6578 33.5766 38.5641 22.2656 45.5109L21.7313 44.9766C21.1078 44.4422 20.0391 44.3531 19.2375 44.7984C18.9703 44.9766 18.7922 45.0656 18.525 45.2437ZM9.70782 35.0906C12.7359 37.8516 15.7641 40.6125 18.8813 43.4625C20.0391 43.1062 21.375 43.1953 22.4438 43.7297C32.775 37.1391 41.7703 28.9453 48.9844 19.4156C48.3609 18.4359 48.2719 17.1891 48.7172 16.1203C45.6891 13.3594 42.6609 10.5984 39.5438 7.74844C38.7422 8.46094 37.5844 8.55 36.6047 8.01563C29.3906 17.6344 20.3953 25.8281 10.0641 32.4188C10.5984 33.3094 10.5094 34.3781 9.70782 35.0906Z" fill="#699635"/>
<path d="M17.8125 33.2203C18.7922 32.8641 19.8609 32.9531 20.5734 33.5766C20.1281 33.9328 19.5938 34.2891 19.1484 34.6453C18.9703 34.4672 18.525 34.4672 18.3469 34.6453C18.0797 34.8234 17.9906 35.0906 18.2578 35.2687C18.4359 35.4469 18.8813 35.4469 19.1484 35.2687C20.2172 34.5562 21.7313 34.4672 22.5328 35.2687C23.1563 35.8922 23.2453 36.7828 22.6219 37.4953C22.8 37.6734 22.9781 37.7625 23.1563 37.9406C22.7109 38.2078 22.2656 38.5641 21.8203 38.8312C21.6422 38.6531 21.4641 38.475 21.2859 38.3859C20.3063 38.6531 19.2375 38.5641 18.6141 37.9406C19.1484 37.5844 19.5938 37.3172 20.1281 36.9609C20.3063 37.1391 20.7516 37.1391 21.0188 36.9609C21.2859 36.7828 21.2859 36.5156 21.1078 36.3375C20.9297 36.1594 20.5734 36.1594 20.3063 36.3375C19.6828 36.7828 18.8813 36.9609 18.1688 36.8719C17.6344 36.7828 17.1891 36.6047 16.8328 36.3375C16.2094 35.7141 16.2094 34.9125 16.7438 34.2C16.5656 34.1109 16.4766 33.9328 16.2984 33.7547C16.7438 33.4875 17.1891 33.1312 17.6344 32.8641C17.5453 32.9531 17.7234 33.0422 17.8125 33.2203Z" fill="#699635"/>
<path d="M38.475 14.1609C39.2766 13.6266 40.2563 13.6266 40.8797 14.25L39.8109 15.5859C39.6328 15.4078 39.2766 15.4078 39.0984 15.675C38.9203 15.9422 38.9203 16.2984 39.0984 16.4766C39.2766 16.6547 39.6328 16.6547 39.8109 16.3875C40.6125 15.4078 41.9484 15.2297 42.75 15.9422C43.3734 16.5656 43.5516 17.5453 43.1953 18.4359C43.3734 18.6141 43.5516 18.7031 43.7297 18.8813C43.3734 19.3266 43.1063 19.6828 42.75 20.1281C42.5719 19.95 42.3938 19.7719 42.2156 19.6828C41.4141 20.1281 40.5234 20.1281 39.9 19.5047C40.2563 19.0594 40.7016 18.6141 41.0578 18.1688C41.2359 18.3469 41.5922 18.3469 41.7703 18.0797C41.9484 17.8125 41.9484 17.4563 41.7703 17.2781C41.5922 17.1 41.2359 17.1 41.0578 17.3672C40.6125 17.9016 39.9 18.2578 39.2766 18.2578C38.8313 18.2578 38.3859 18.0797 38.0297 17.8125C37.4063 17.1891 37.2281 16.2984 37.5844 15.4078C37.4063 15.3188 37.3172 15.1406 37.1391 14.9625C37.4953 14.6063 37.8516 14.1609 38.1188 13.7156C38.1188 13.8938 38.2969 13.9828 38.475 14.1609Z" fill="#699635"/>
<path d="M35.8031 31.6172C32.9531 34.2 28.1438 34.1109 25.3828 31.6172C22.6219 29.0344 22.8 25.0266 25.65 22.4438C28.5 19.8609 32.9531 19.5938 35.7141 22.1766C38.5641 24.6703 38.6531 29.0344 35.8031 31.6172Z" fill="#699635"/>
<path d="M19.4156 21.8203L36.2484 37.2281C38.2078 35.625 39.9891 33.9328 41.7703 32.1516L25.0266 16.7438C23.2453 18.4359 21.375 20.1281 19.4156 21.8203Z" fill="#FFDD7D"/>
<path d="M36.3375 43.9969C38.2078 42.5719 40.0781 41.0578 41.8594 39.5438V32.0625C40.0781 33.8437 38.2078 35.5359 36.3375 37.1391V43.9969Z" fill="#DBB471"/>
<path d="M10.7766 21.9984C11.7563 21.6422 12.5578 21.1078 13.3594 20.4844C14.1609 19.8609 14.8734 19.2375 15.675 18.525C16.4766 17.9016 17.2781 17.1891 18.1688 16.7437C19.0594 16.2094 20.2172 15.9422 21.1969 16.1203C20.2172 16.2984 19.3266 16.7438 18.525 17.3672C17.7234 17.9016 17.0109 18.6141 16.2094 19.2375C15.4078 19.8609 14.6063 20.5734 13.7156 21.1078C12.825 21.6422 11.7563 21.9984 10.7766 21.9984Z" fill="#8D9998"/>
<path d="M35.4469 29.4797C35.4469 29.4797 39.8109 30.7266 49.9641 28.0547C60.1172 25.3828 55.3078 54.5953 36.7828 54.5953C34.7344 54.5953 34.6453 52.0125 40.3453 47.3812C40.3453 47.3812 32.3297 49.2516 35.8031 43.2844C35.8031 43.2844 30.1031 44.2641 32.6859 39.7219C32.6859 39.7219 33.8437 36.3375 32.775 32.5078C32.8641 32.5078 33.4875 30.5484 35.4469 29.4797Z" fill="#E8E8E8"/>
<path d="M54.7734 30.9047C54.9516 38.7422 48.7172 51.7453 36.3375 51.7453H36.1594C35.0016 53.6156 35.5359 54.6844 36.7828 54.6844C50.8547 54.5953 57 37.8516 54.7734 30.9047Z" fill="#D1D1D1"/>
<path d="M48.3609 35.1797C45.6891 44.7984 35.0016 45.6 35.0016 45.6C34.5563 47.6484 35.4469 48.5391 36.6047 48.5391C40.5234 48.6281 47.8266 42.1266 48.3609 35.1797Z" fill="#D1D1D1"/>
<path d="M40.8797 35.1797C34.5563 44.0859 32.3297 40.7906 32.3297 40.7906C30.7266 44.3531 34.9125 44.3531 35.625 43.5516C37.6734 41.325 40.9688 36.6937 40.8797 35.1797Z" fill="#D1D1D1"/>
<path d="M36.0703 52.0125C37.1391 50.5875 38.475 49.4297 39.8109 48.2719C41.1469 47.1141 42.4828 45.9563 43.8188 44.7094C45.0656 43.4625 46.3125 42.0375 47.2031 40.4344C48.0938 38.8313 48.5391 36.9609 48.3609 35.1797C48.1828 36.9609 47.5594 38.6531 46.5797 40.0781C45.6 41.5031 44.4422 42.8391 43.1953 44.0859C41.9484 45.3328 40.6125 46.4906 39.3656 47.8266C38.0297 48.9844 36.8719 50.4094 36.0703 52.0125Z" fill="#8D9998"/>
<path d="M35.0016 45.6C35.3578 44.6203 35.8922 43.8188 36.5156 43.0172C37.1391 42.2156 37.7625 41.5031 38.475 40.7016C39.0984 39.9 39.8109 39.0984 40.2562 38.2078C40.7906 37.3172 41.0578 36.1594 40.8797 35.1797C40.7016 36.1594 40.2562 37.05 39.6328 37.8516C39.0984 38.6531 38.3859 39.3656 37.7625 40.1672C37.1391 40.9687 36.4266 41.7703 35.8922 42.6609C35.3578 43.5516 35.0016 44.6203 35.0016 45.6Z" fill="#8D9998"/>
<path d="M26.8969 21.5531C26.8969 21.5531 25.65 17.1891 28.3219 7.03594C30.9937 -3.11719 1.78125 1.69219 1.78125 20.2172C1.78125 22.2656 4.36406 22.3547 8.99531 16.6547C8.99531 16.6547 7.125 24.6703 13.0922 21.1969C13.0922 21.1969 12.1125 26.8969 16.6547 24.3141C16.6547 24.3141 20.0391 23.1563 23.8687 24.225C23.8687 24.1359 25.8281 23.5125 26.8969 21.5531Z" fill="#E8E8E8"/>
<path d="M25.4719 2.22656C17.6344 2.04844 4.63125 8.28281 4.63125 20.6625V20.8406C2.76094 21.9094 1.78125 21.4641 1.78125 20.2172C1.78125 6.14531 18.525 -2.02656e-06 25.4719 2.22656Z" fill="#D1D1D1"/>
<path d="M21.1969 8.63906C11.5781 11.3109 10.7766 21.9984 10.7766 21.9984C8.72812 22.4438 7.8375 21.5531 7.8375 20.3953C7.74844 16.4766 14.25 9.17344 21.1969 8.63906Z" fill="#D1D1D1"/>
<path d="M21.1969 16.1203C12.2906 22.4437 15.5859 24.6703 15.5859 24.6703C12.0234 26.2734 12.0234 22.0875 12.825 21.375C15.0516 19.3266 19.6828 16.0312 21.1969 16.1203Z" fill="#D1D1D1"/>
<path d="M4.36406 20.9297C5.78906 19.8609 6.94687 18.525 8.10468 17.1891C9.2625 15.8531 10.4203 14.5172 11.6672 13.1813C12.9141 11.9344 14.3391 10.6875 15.9422 9.79688C17.5453 8.90625 19.4156 8.46094 21.1969 8.63906C19.4156 8.81719 17.7234 9.44063 16.2984 10.4203C14.8734 11.4 13.5375 12.5578 12.2906 13.8047C11.0437 15.0516 9.88593 16.3875 8.55 17.6344C7.30312 18.9703 5.96718 20.1281 4.36406 20.9297Z" fill="#8D9998"/>
</svg>
