<svg width="30" height="21" viewBox="0 0 30 21" fill="none" xmlns="http://www.w3.org/2000/svg">
<path d="M0 7.03125H30V13.5938H0V7.03125Z" fill="#E6E7E8"/>
<path d="M25.3125 0H4.6875C1.58109 0 0 2.30859 0 5.15625V7.03125H30V5.15625C30 2.30859 28.4189 0 25.3125 0Z" fill="#74ACDF"/>
<path d="M0 15.4688C0 18.3164 1.58109 20.625 4.6875 20.625H25.3125C28.4189 20.625 30 18.3164 30 15.4688V13.5938H0V15.4688Z" fill="#74ACDF"/>
<path fill-rule="evenodd" clip-rule="evenodd" d="M15.3178 8.38966C15.4631 8.20872 15.4781 8.02825 15.4819 7.83747C15.4861 7.67575 15.51 7.5131 15.5391 7.35091C15.5499 7.29044 15.5925 7.23044 15.6347 7.1845C15.6515 7.17021 15.6711 7.15971 15.6923 7.15372C15.7135 7.14774 15.7357 7.1464 15.7575 7.14981C15.7805 7.15591 15.802 7.21872 15.8002 7.25575C15.7969 7.31997 15.7669 7.38372 15.7627 7.44794C15.7533 7.58341 15.7533 7.71653 15.7528 7.8506C15.7509 7.98606 15.7519 8.12013 15.7519 8.27106C15.8484 8.07044 15.9403 7.87731 16.035 7.6856C16.0838 7.57894 16.1392 7.47545 16.2009 7.37575C16.2249 7.34247 16.2863 7.3331 16.3294 7.31341C16.3458 7.35794 16.3875 7.40716 16.3781 7.44466C16.3224 7.64294 16.2549 7.83841 16.1888 8.03388C16.1297 8.21294 16.0664 8.38872 15.9924 8.59685C16.1817 8.49091 16.2647 8.34794 16.3388 8.19091C16.4199 8.01841 16.5145 7.85013 16.6219 7.6931C16.673 7.6195 16.7681 7.5281 16.8675 7.61247C16.8933 7.63403 16.8459 7.77653 16.8005 7.83794C16.6945 7.98138 16.6303 8.13325 16.5839 8.30622C16.5445 8.45388 16.4419 8.5856 16.3739 8.71075C16.3988 8.69106 16.4424 8.6545 16.4822 8.617C16.6749 8.4445 16.8661 8.26966 17.0597 8.09763C17.1127 8.05028 17.1699 8.00622 17.2322 7.97622C17.2617 7.96169 17.3194 7.97341 17.3456 7.99403C17.3667 8.00856 17.3695 8.06997 17.3555 8.09575C17.3164 8.16528 17.27 8.23048 17.2172 8.29028C16.9945 8.54013 16.77 8.78716 16.5249 9.05669C16.7597 9.02435 16.9078 8.9095 17.0499 8.76935C17.1614 8.65919 17.2913 8.56403 17.4174 8.46794C17.4547 8.43926 17.5001 8.42303 17.5472 8.42153C17.6105 8.42341 17.6728 8.45013 17.7338 8.46794C17.7 8.5181 17.6794 8.58935 17.632 8.617C17.4475 8.72105 17.2893 8.86621 17.1699 9.04122C17.0991 9.14622 16.9664 9.20622 16.8413 9.30325C17.1127 9.20622 17.3634 9.11669 17.6152 9.03044C17.7127 8.99716 17.8134 8.9695 17.9142 8.95263C17.9447 8.94747 18.0028 8.97747 18.0131 9.00466C18.023 9.03372 18.0042 9.09325 17.9789 9.11341C17.9124 9.1645 17.8383 9.20716 17.7614 9.24231C17.4703 9.38388 17.1783 9.52075 16.8642 9.66981C17.1178 9.74575 17.3166 9.65528 17.5233 9.57841C17.6827 9.51981 17.8575 9.49825 18.0277 9.48231C18.0778 9.47763 18.1374 9.54653 18.1908 9.58216C18.1425 9.6206 18.0961 9.68903 18.0422 9.69372C17.8209 9.71763 17.6325 9.80622 17.4399 9.91263C17.3128 9.98294 17.1478 9.98575 16.9988 10.0204C17.3503 10.0401 17.7019 10.0598 18.0539 10.0814C18.0581 10.0814 18.0633 10.0804 18.068 10.0828L18.2592 10.192C18.1983 10.2295 18.1378 10.297 18.0731 10.3012C17.7549 10.3308 17.4333 10.3439 17.1145 10.3636C17.0658 10.3654 17.0175 10.3697 16.9378 10.3762C17.1656 10.544 17.3906 10.5304 17.6227 10.5375C17.7891 10.5403 17.9583 10.5984 18.1205 10.6509C18.1622 10.6636 18.1838 10.7414 18.2133 10.7892C18.1613 10.8079 18.1083 10.8403 18.0572 10.8403C17.9883 10.8403 17.9189 10.8112 17.8491 10.7995C17.7895 10.7892 17.7263 10.77 17.6695 10.7808C17.4263 10.8253 17.1867 10.86 16.9538 10.7226C16.9528 10.7343 16.9495 10.7465 16.9467 10.7583C17.2106 10.8825 17.4727 11.0067 17.7347 11.1323C17.8106 11.1689 17.8894 11.2064 17.9559 11.257C17.9892 11.2828 17.9995 11.3409 18.0192 11.385C17.9756 11.4028 17.9306 11.4412 17.8908 11.4361C17.7994 11.4234 17.7084 11.3915 17.6199 11.3611C17.3372 11.2645 17.055 11.1637 16.7606 11.0587C16.8356 11.2429 16.9781 11.3343 17.2613 11.445C17.3944 11.4961 17.5177 11.5823 17.6302 11.67C17.7024 11.7267 17.8092 11.8228 17.7291 11.9165C17.6442 12.0173 17.5491 11.9048 17.4774 11.849C17.3442 11.7464 17.1975 11.6901 17.0353 11.6456C16.8802 11.602 16.7428 11.4947 16.6045 11.4164C16.7864 11.6179 16.9781 11.8293 17.1675 12.0412C17.2266 12.1087 17.2899 12.1748 17.3334 12.2517C17.3574 12.2911 17.3428 12.3534 17.3442 12.4045C17.2922 12.4008 17.2247 12.4153 17.1891 12.3881C17.048 12.2793 16.9158 12.1579 16.7813 12.0393C16.6172 11.895 16.4559 11.7483 16.2741 11.5851C16.3106 11.8504 16.4559 12.0117 16.6275 12.157C16.7709 12.2793 16.882 12.4251 16.9167 12.6131C16.9275 12.6684 16.8938 12.7308 16.8792 12.7898C16.8281 12.7593 16.7536 12.7425 16.7283 12.697C16.6201 12.509 16.4696 12.3488 16.2886 12.2292C16.1869 12.1603 16.1269 12.0286 16.0378 11.9123C16.0795 12.037 16.117 12.1514 16.1569 12.2658C16.2211 12.4476 16.2867 12.6281 16.35 12.8104C16.3693 12.8584 16.3792 12.9097 16.3791 12.9614C16.3758 13.0012 16.3509 13.0612 16.3228 13.0701C16.2891 13.08 16.2309 13.0542 16.2061 13.0223C16.1588 12.9651 16.1259 12.8953 16.0941 12.8292C15.9525 12.5376 15.8133 12.2437 15.6624 11.9254C15.5939 12.1406 15.6455 12.3126 15.7144 12.4861C15.7706 12.6295 15.8227 12.7762 15.8527 12.9272C15.8695 13.0092 15.8424 13.1039 15.8231 13.1892C15.8161 13.215 15.7674 13.2464 15.7383 13.2454C15.7102 13.2454 15.6591 13.2089 15.6572 13.1859C15.6356 12.8906 15.4941 12.6431 15.3713 12.3843C15.3267 12.2925 15.3417 12.1743 15.3089 12.0675C15.2953 12.3515 15.2808 12.6342 15.2663 12.9183C15.2625 13.0031 15.2644 13.0898 15.2405 13.1709C15.225 13.2239 15.1716 13.2698 15.1345 13.3172C15.0994 13.2684 15.0361 13.2215 15.0319 13.1695C15.0042 12.8554 14.9892 12.5404 14.9719 12.2273C14.9686 12.1584 14.9719 12.089 14.9527 12.0168C14.8496 12.1369 14.7936 12.2903 14.7952 12.4486C14.7952 12.6023 14.8088 12.7603 14.7877 12.9122C14.7741 13.0153 14.7197 13.1161 14.6672 13.2089C14.6484 13.2422 14.5824 13.2483 14.5369 13.2656C14.5214 13.2253 14.5008 13.1859 14.4905 13.1433C14.4853 13.1175 14.4966 13.0879 14.5031 13.0603C14.5509 12.8765 14.5739 12.6979 14.5228 12.5043C14.4928 12.389 14.5181 12.2587 14.5181 12.1251C14.4122 12.3454 14.3067 12.5643 14.2008 12.7814C14.1614 12.8625 14.123 12.9454 14.0719 13.0162C14.0461 13.0495 13.9866 13.0579 13.9434 13.0767C13.9252 13.0331 13.8895 12.9858 13.8942 12.9445C13.9083 12.8526 13.9392 12.7626 13.9706 12.674C14.0691 12.3909 14.1699 12.1092 14.2805 11.7942C14.0644 11.9109 13.9884 12.0867 13.9074 12.2629C13.8371 12.4159 13.751 12.5611 13.6505 12.6961C13.5975 12.7692 13.5024 12.8592 13.4039 12.7762C13.3781 12.7565 13.4264 12.6122 13.4728 12.5484C13.5774 12.405 13.6411 12.254 13.687 12.0806C13.7264 11.9325 13.8309 11.8022 13.905 11.6676C13.6908 11.8593 13.4719 12.06 13.2488 12.2573C13.1862 12.3141 13.118 12.3643 13.0453 12.4073C13.0167 12.4237 12.9558 12.4186 12.9319 12.3979C12.9113 12.3773 12.9042 12.315 12.9192 12.2868C12.9534 12.2193 13.0003 12.1593 13.0491 12.1026C13.2717 11.8542 13.4967 11.6081 13.7405 11.3376C13.4808 11.37 13.3369 11.5186 13.1874 11.6704C13.0769 11.7776 12.954 11.8711 12.8213 11.9489C12.7425 11.999 12.6155 12.0581 12.5559 11.9526C12.488 11.8303 12.6328 11.7886 12.7102 11.745C12.8588 11.655 12.9689 11.5364 13.0716 11.3972C13.1597 11.2781 13.2975 11.1947 13.417 11.0934L12.653 11.3597C12.5817 11.3854 12.5114 11.4201 12.4388 11.4272C12.3802 11.4351 12.3178 11.4075 12.2578 11.3958C12.2883 11.3395 12.3066 11.2575 12.3534 11.2317C12.5925 11.1047 12.8424 10.9898 13.088 10.8703L13.3842 10.7259C13.1967 10.6551 13.0524 10.679 12.7917 10.7929C12.667 10.8461 12.5369 10.8856 12.4036 10.9106C12.3292 10.9225 12.2531 10.9167 12.1814 10.8937C12.1406 10.8825 12.113 10.8295 12.0797 10.7962C12.113 10.7648 12.1449 10.709 12.1824 10.7058C12.4299 10.6767 12.6483 10.5839 12.8644 10.4578C12.9741 10.3936 13.1264 10.3997 13.2928 10.3673C12.9717 10.3514 12.6834 10.3383 12.3966 10.3237C12.3021 10.3214 12.2081 10.3103 12.1158 10.2904C12.0745 10.2806 12.0464 10.2258 12.0113 10.1925C12.0459 10.1601 12.0764 10.1067 12.1172 10.0959C12.2086 10.0739 12.3033 10.0692 12.3975 10.0645C12.697 10.0486 12.9947 10.035 13.3327 10.019C13.1133 9.85872 12.9052 9.83997 12.6877 9.86903C12.5038 9.89448 12.3167 9.85539 12.1584 9.75841C12.1111 9.72888 12.09 9.65856 12.0577 9.60653C12.1149 9.59013 12.1791 9.54841 12.2283 9.56013C12.4287 9.60983 12.637 9.61891 12.8409 9.58685C13.0069 9.56106 13.1869 9.62528 13.3627 9.65106C13.1072 9.52966 12.8452 9.40638 12.5859 9.27888C12.488 9.23357 12.3935 9.18108 12.3033 9.12185C12.2733 9.10122 12.2484 9.03606 12.2588 9.00466C12.2681 8.97653 12.3328 8.94606 12.3694 8.95216C12.4659 8.96716 12.5606 8.99575 12.6534 9.0281C12.9375 9.12513 13.2192 9.22685 13.5131 9.33091C13.4405 9.15044 13.2961 9.06091 13.0139 8.94419C12.862 8.87997 12.7308 8.76653 12.5953 8.67091C12.5633 8.64254 12.5408 8.6051 12.5306 8.56356C12.5217 8.53216 12.525 8.48153 12.5447 8.46138C12.5644 8.44169 12.6117 8.44778 12.6464 8.44403C12.6516 8.44403 12.6567 8.44591 12.66 8.44872C12.9277 8.74216 13.3884 8.67794 13.6603 8.97606C13.6434 8.95122 13.6266 8.92497 13.6059 8.90294C13.4133 8.69013 13.2202 8.47685 13.0289 8.26263C12.9864 8.21886 12.9513 8.16852 12.9249 8.11356C12.9103 8.07606 12.9089 8.00903 12.9309 7.98794C12.9558 7.96544 13.0238 7.96638 13.058 7.98513C13.1194 8.01653 13.1742 8.06388 13.2267 8.11169C13.4714 8.33013 13.7152 8.55138 13.9828 8.79185C13.9589 8.55981 13.8319 8.42435 13.702 8.28231C13.5816 8.15013 13.4841 7.99638 13.3786 7.84778C13.3629 7.82411 13.3553 7.79598 13.357 7.76763C13.365 7.71185 13.3847 7.65747 13.3992 7.60169C13.4484 7.62841 13.5188 7.64435 13.5436 7.6856C13.6603 7.88435 13.8005 8.04794 13.9978 8.17731C14.0944 8.24294 14.1478 8.37513 14.2308 8.4895C14.22 8.44685 14.2163 8.41356 14.2041 8.38263C14.1211 8.14638 14.0363 7.91388 13.9533 7.67669C13.9336 7.62466 13.9041 7.56981 13.9041 7.51685C13.9031 7.44841 13.927 7.38044 13.9397 7.31153C13.9969 7.34903 14.0789 7.37481 14.1061 7.42919C14.257 7.71606 14.3925 8.01231 14.5336 8.30481C14.5566 8.35028 14.5795 8.39435 14.6105 8.45669C14.6836 8.22278 14.6086 8.03622 14.5317 7.8431C14.4792 7.70343 14.4402 7.55901 14.4155 7.41185C14.4028 7.34669 14.422 7.27075 14.445 7.20466C14.4558 7.17606 14.5045 7.1456 14.5378 7.14231C14.5627 7.14138 14.6128 7.18216 14.6147 7.2056C14.6428 7.48872 14.7638 7.73388 14.8945 7.98138C14.9447 8.07606 14.9306 8.20638 14.9597 8.32028C14.9794 7.97294 15.0009 7.62653 15.0211 7.27872C15.022 7.25903 15.0178 7.237 15.0258 7.22341C15.0595 7.17138 15.0947 7.12075 15.1308 7.07153C15.1683 7.12356 15.2367 7.17325 15.24 7.22763C15.2691 7.57872 15.2836 7.93216 15.3033 8.28606C15.3066 8.31091 15.3108 8.33388 15.3178 8.39013V8.38966ZM12.7533 9.81841C12.8859 9.83013 13.0233 9.83013 13.1536 9.86294C13.2741 9.89247 13.3856 9.96091 13.5052 10.0003C13.5633 10.0214 13.6308 10.0139 13.6936 10.02C13.5028 9.92763 13.3181 9.84044 13.1245 9.79591C13.0097 9.76966 12.8775 9.80903 12.7533 9.81841C12.5681 9.77481 12.383 9.73028 12.1983 9.68622C12.3624 9.82778 12.5555 9.83528 12.7533 9.81841ZM17.2252 11.5026C17.3531 11.5954 17.4839 11.6859 17.6081 11.7843C17.6358 11.805 17.6424 11.8551 17.6583 11.8917C17.678 11.8678 17.6869 11.8354 17.6738 11.8176C17.5678 11.6493 17.4272 11.5298 17.2195 11.5059C17.04 11.4009 16.8394 11.3259 16.7133 11.1426C16.6648 11.0788 16.6064 11.0231 16.5403 10.9776C16.4949 10.9443 16.4358 10.9293 16.3824 10.9059C16.4883 11.0409 16.6186 11.1328 16.7241 11.2481C16.8515 11.3951 17.0313 11.4864 17.2252 11.5026ZM13.0856 8.88278C12.8881 8.81325 12.7186 8.68149 12.6024 8.50731C12.5606 8.65075 12.8827 8.9081 13.0899 8.8795C13.1086 8.90247 13.1274 8.92731 13.1499 8.94606C13.2853 9.04966 13.4245 9.1495 13.5586 9.25497C13.6275 9.31028 13.6861 9.37966 13.7583 9.43169C13.7949 9.45841 13.8488 9.46122 13.8952 9.47294C13.8 9.36091 13.6814 9.28591 13.5933 9.18606C13.4634 9.03031 13.2844 8.92336 13.0856 8.88278ZM12.7631 10.7367C12.99 10.6448 13.2267 10.6317 13.4681 10.6448C13.5417 10.6481 13.6177 10.6293 13.6894 10.6097C13.7142 10.6026 13.7306 10.5651 13.7592 10.5304C13.5145 10.544 13.2924 10.5403 13.0772 10.5764C12.9666 10.5947 12.87 10.6837 12.765 10.7404L12.2499 10.83L12.2569 10.8651C12.4369 10.8731 12.6127 10.8614 12.7631 10.7367ZM15.84 11.5218C15.8095 11.5078 15.7791 11.4956 15.7481 11.4829C15.7378 11.49 15.7275 11.4979 15.7172 11.5059C15.9019 11.9489 16.0852 12.3937 16.2689 12.8376C16.2788 12.8348 16.2877 12.8306 16.2984 12.8278C16.1442 12.39 15.9914 11.9531 15.8377 11.5176C15.9361 11.6526 16.0631 11.7754 16.1264 11.9264C16.2272 12.1654 16.4395 12.2611 16.6261 12.3951C16.4939 12.2404 16.3275 12.1083 16.2174 11.9409C16.1039 11.7712 16.0739 11.5472 15.8827 11.3878C15.8639 11.4468 15.8527 11.4843 15.84 11.5209V11.5218ZM14.6761 8.68497C14.5688 8.47403 14.46 8.26169 14.3545 8.04841C14.2645 7.867 14.1788 7.68325 14.0906 7.50185C14.0797 7.50591 14.069 7.51076 14.0588 7.51638C14.2453 7.96356 14.4314 8.41263 14.6175 8.86075L14.6738 8.84903V8.68263L14.7633 8.79513C14.7633 8.61841 14.7666 8.44075 14.7624 8.26356C14.7605 8.18997 14.7624 8.10278 14.7258 8.0456C14.5847 7.82435 14.5294 7.58153 14.5069 7.32794C14.5069 7.32278 14.4933 7.31997 14.4384 7.28856C14.4759 7.45919 14.4759 7.61106 14.5392 7.72872C14.7099 8.03575 14.7047 8.35638 14.6761 8.68497ZM13.0617 12.3764C13.0786 12.3548 13.0922 12.3309 13.1128 12.3131C13.447 12.0103 13.7836 11.7079 14.1155 11.4028C14.1488 11.3718 14.1577 11.3123 14.1788 11.265C14.1328 11.2847 14.0756 11.2908 14.0442 11.3222C13.7367 11.6328 13.4311 11.9453 13.1274 12.2597C13.0974 12.2906 13.0838 12.3365 13.0617 12.375C12.9661 12.3051 13.0369 12.2554 13.0847 12.2062C13.3739 11.9109 13.665 11.6156 13.9552 11.3198C14.002 11.272 14.0424 11.219 14.0977 11.1539C13.9434 11.1656 12.9942 12.2011 12.9694 12.3633C13.0008 12.3665 13.0317 12.3712 13.0617 12.375V12.3764ZM15.5981 11.7108C15.7102 11.932 15.8227 12.1518 15.9338 12.375C16.0275 12.5653 16.1175 12.7579 16.2103 12.9497C16.2202 12.9459 16.23 12.9398 16.2408 12.9361C16.0453 12.4673 15.8517 11.999 15.6572 11.5312C15.6384 11.5331 15.6197 11.5354 15.6009 11.5392C15.6009 11.5987 15.6009 11.6568 15.6 11.715L15.4856 11.564C15.4983 11.8228 15.4795 12.052 15.5292 12.2662C15.5934 12.5414 15.713 12.8025 15.8034 13.0561C15.8277 12.9175 15.802 12.7748 15.7308 12.6534C15.5559 12.3553 15.5695 12.0347 15.5981 11.7112V11.7108ZM16.4747 9.48372L16.433 9.60325C16.4588 9.60419 16.4883 9.6131 16.5089 9.6056C16.958 9.41622 17.4066 9.2245 17.8547 9.03372C17.8524 9.02481 17.8477 9.01685 17.8453 9.00794L16.47 9.48841C16.6041 9.39185 16.7405 9.29481 16.8736 9.19638C16.9734 9.12231 17.0958 9.06091 17.1652 8.96341C17.2669 8.82185 17.377 8.70466 17.5303 8.62169C17.5861 8.59216 17.633 8.54575 17.6841 8.50591C17.5715 8.54844 17.465 8.60548 17.3672 8.6756C17.287 8.73185 17.2022 8.78997 17.1455 8.86685C17.0447 9.0087 16.9043 9.11763 16.7419 9.17997C16.5989 9.23716 16.4695 9.32997 16.3355 9.40685L16.3509 9.46216C16.3941 9.47013 16.4334 9.47716 16.4747 9.48372ZM13.8183 10.8947C13.6791 10.9954 13.553 11.1215 13.4006 11.1933C13.1883 11.2917 13.0786 11.4614 12.9783 11.6493C13.125 11.5247 13.2488 11.369 13.4091 11.2692C13.5755 11.1642 13.7808 11.1201 13.9341 10.9462L13.8155 10.8979C13.8225 10.8572 13.8309 10.8178 13.8469 10.747L12.4163 11.3583C12.4214 11.3681 12.4242 11.377 12.428 11.3868C12.8911 11.2223 13.3552 11.0578 13.8183 10.8947ZM14.828 11.4042C15.1631 11.5092 15.1631 11.5092 15.4416 11.4084C15.4205 11.4487 15.405 11.4811 15.3844 11.5186C16.0247 11.4567 16.5436 10.7775 16.4906 10.0893C16.4334 9.34591 15.7974 8.79981 15.0328 8.83638C14.3236 8.872 13.7583 9.49685 13.7714 10.2304C13.7841 10.8989 14.3517 11.527 14.9461 11.5279C14.9124 11.4928 14.8781 11.4576 14.828 11.4042ZM16.4424 10.7658L16.4213 10.8159C16.4902 10.9148 17.618 11.3479 17.8758 11.3597C17.3977 11.1614 16.9191 10.964 16.4424 10.7658ZM15.1786 13.1751L15.1997 13.177C15.2255 12.6904 15.2508 12.2029 15.2691 11.7164C15.2714 11.685 15.232 11.6508 15.2109 11.6175C15.1997 11.6236 15.1894 11.6273 15.1786 11.632V13.1751ZM15.1758 8.77544C15.2775 8.7056 15.2775 8.7056 15.2419 8.00153C15.2292 7.74091 15.2114 7.47935 15.1955 7.21778L15.1758 7.21966V8.77544ZM16.2113 7.51263C16.2022 7.50715 16.1926 7.50259 16.1827 7.49903C16.14 7.58575 16.0964 7.67247 16.0552 7.7606C15.9131 8.05872 15.7692 8.35403 15.6319 8.65403C15.6005 8.71825 15.5489 8.79513 15.6614 8.87528C15.8489 8.4131 16.0294 7.96169 16.2113 7.51263ZM15.0947 11.5968C14.9897 11.7014 15.0108 12.8414 15.0947 13.1751V11.5968ZM16.5502 10.1137C16.5563 10.1287 16.5619 10.1433 16.5689 10.1587H18.1013C17.6305 10.1114 17.1584 10.0781 16.6856 10.0589C16.6416 10.0565 16.5961 10.0954 16.552 10.1137H16.5502ZM18.1181 10.2483H16.5652L16.5661 10.3223C17.0836 10.3331 17.6002 10.2768 18.1181 10.2483ZM12.1627 10.2145C12.1627 10.2286 12.1627 10.2417 12.1613 10.2553C12.3881 10.2679 12.6155 10.2829 12.8438 10.2947C13.0875 10.3083 13.3313 10.3242 13.5755 10.3303C13.6167 10.3312 13.6594 10.2904 13.7011 10.2689C13.6636 10.2511 13.6252 10.2187 13.5886 10.2178C13.1133 10.2136 12.6384 10.2145 12.1627 10.2145ZM15.0956 7.21638L15.0769 7.2206C15.0511 7.69403 15.0249 8.16747 15.0019 8.64091C15.0009 8.68263 15.0361 8.7281 15.0539 8.77216C15.0676 8.76693 15.0815 8.76239 15.0956 8.75856V7.21544V7.21638ZM12.2133 10.1386H13.7311C13.6158 10.0486 12.4575 10.0776 12.2133 10.1386ZM17.1938 8.0831L17.1736 8.06247C16.8286 8.37841 16.4827 8.69481 16.1372 9.00935C16.1186 9.02422 16.1047 9.04405 16.0969 9.06653C16.0917 9.08997 16.0988 9.11669 16.1006 9.14106C16.1255 9.13544 16.155 9.13638 16.1719 9.12278C16.215 9.08716 16.2516 9.04356 16.2909 9.00419C16.5914 8.69763 16.8924 8.38919 17.1938 8.08216V8.0831ZM15.4303 8.78435C15.4552 8.79325 15.4795 8.8031 15.5034 8.81294C15.5241 8.77356 15.5508 8.73606 15.5625 8.69481C15.6028 8.53263 15.6394 8.36903 15.6778 8.20591C15.6928 8.14263 15.7303 8.07278 15.7163 8.0156C15.6544 7.75591 15.6802 7.50325 15.7528 7.25247C15.757 7.23466 15.7341 7.20981 15.7205 7.18169C15.6966 7.29606 15.6717 7.38841 15.6591 7.48263C15.6413 7.60638 15.6127 7.73435 15.6258 7.85575C15.6455 8.0306 15.6225 8.18763 15.5559 8.34888C15.4988 8.48716 15.4706 8.63716 15.4303 8.78435ZM14.67 11.5345C14.649 11.5315 14.6279 11.5295 14.6067 11.5284L14.0892 12.8179C14.0991 12.8217 14.1099 12.8278 14.1216 12.8315C14.3044 12.4467 14.4886 12.0614 14.6677 11.6733C14.6859 11.6362 14.67 11.5814 14.67 11.5345ZM13.4428 12.7017V12.7495C13.4836 12.7345 13.5427 12.7336 13.5647 12.704C13.6622 12.5756 13.7728 12.4472 13.8361 12.3014C13.9247 12.0998 14.0147 11.9104 14.1938 11.7698C14.2697 11.7098 14.3306 11.6278 14.3888 11.5495C14.4108 11.5186 14.4047 11.4665 14.4108 11.4253C14.2753 11.5448 14.1619 11.6643 14.0667 11.7956C13.9824 11.9109 13.8844 12.0314 13.8534 12.1636C13.8033 12.3806 13.6472 12.5189 13.5309 12.6876C13.5192 12.7036 13.4738 12.6989 13.4428 12.7017ZM13.0828 8.0545C13.0753 8.06388 13.0659 8.07325 13.058 8.08356C13.1714 8.19091 13.2858 8.29872 13.3964 8.40794C13.6247 8.63388 13.8497 8.86216 14.0799 9.08622C14.1033 9.10872 14.1469 9.11106 14.1816 9.12278C14.1699 9.08716 14.1666 9.04544 14.1469 9.01497C14.123 8.97981 14.0855 8.95591 14.0555 8.92685C13.7971 8.6925 13.538 8.45891 13.2783 8.22606C13.215 8.16935 13.1489 8.11216 13.0828 8.0545ZM17.1924 12.3342C17.2013 12.3253 17.2093 12.3156 17.2163 12.3051C16.8816 11.9704 16.5436 11.6348 16.2056 11.3011C16.1799 11.2743 16.1306 11.2715 16.0941 11.2584C16.1077 11.2992 16.1119 11.3503 16.1405 11.3779C16.2642 11.4998 16.3945 11.6161 16.5225 11.7328C16.7461 11.9358 16.9702 12.134 17.1924 12.3342ZM13.0313 8.16935L13.0252 8.17263C13.1034 8.25935 13.1803 8.34606 13.2595 8.43325C13.4836 8.67981 13.7063 8.92919 13.9336 9.17247C13.9664 9.20716 14.0217 9.22028 14.0663 9.24372L14.0789 9.2081C13.7302 8.86122 13.3795 8.51481 13.0313 8.16935ZM12.4209 9.03513C12.8892 9.22638 13.357 9.41856 13.8549 9.62341C13.7995 9.47856 12.7945 9.07731 12.4209 9.03513ZM16.185 9.21372C16.2028 9.23247 16.2216 9.25122 16.2413 9.26997C16.6116 8.9156 16.9317 8.51388 17.2819 8.14075C17.2917 8.14966 17.3006 8.15856 17.3091 8.16841C16.9331 8.51669 16.56 8.86403 16.185 9.21372ZM16.5183 9.81981C16.5253 9.83247 16.5309 9.8456 16.537 9.85825C16.7138 9.84653 16.8919 9.84653 17.0663 9.81981C17.1966 9.80106 17.3231 9.74997 17.4511 9.7106C17.5716 9.67403 17.6883 9.63138 17.8088 9.59716C17.8795 9.57747 17.9541 9.56997 18.0281 9.55872C18.022 9.53763 18.0174 9.517 18.0122 9.49638C17.8659 9.53388 17.7113 9.55263 17.5749 9.61075C17.3686 9.70028 17.1652 9.77388 16.935 9.74575C16.8552 9.73568 16.7744 9.7371 16.695 9.74997C16.6341 9.75981 16.5769 9.79497 16.5183 9.81981ZM15.8456 8.94935L15.9005 8.97606C15.9549 8.90341 16.0003 8.82044 16.0655 8.75716C16.2703 8.56122 16.4152 8.34231 16.492 8.06013C16.5375 7.89888 16.6636 7.74606 16.8309 7.64856C16.7831 7.6556 16.7213 7.6631 16.6955 7.69872C16.6031 7.82013 16.5042 7.94294 16.4438 8.08216C16.358 8.2781 16.2774 8.47028 16.0988 8.60435C16.0352 8.65367 15.9787 8.71156 15.9309 8.77638C15.8934 8.827 15.8728 8.89122 15.8456 8.94935ZM13.9777 7.47606C13.9682 7.48093 13.9583 7.48486 13.9481 7.48778C14.1103 7.93825 14.2711 8.38825 14.438 8.83638C14.4488 8.86591 14.4975 8.88091 14.5266 8.90481C14.5374 8.89497 14.5486 8.88513 14.558 8.87575L13.9777 7.47606ZM13.7869 9.73122C13.7888 9.7106 13.792 9.69091 13.7949 9.66981C13.35 9.487 12.9056 9.30372 12.4608 9.11997C12.8531 9.3445 13.2586 9.53903 13.6655 9.72841C13.7002 9.74481 13.7461 9.73122 13.7869 9.73122ZM13.9725 13.0026C13.9852 12.9497 13.9964 12.8812 14.0217 12.8179C14.1788 12.42 14.3395 12.0243 14.4989 11.6264C14.5153 11.5828 14.5256 11.5378 14.5477 11.4675C14.3911 11.5654 13.9322 12.8676 13.9725 13.0026ZM17.8927 9.12325L17.873 9.09278L16.478 9.68997C16.4897 9.71575 16.5019 9.74013 16.5122 9.76685C16.9809 9.57325 17.4319 9.33513 17.8927 9.12325ZM17.8167 11.2603L17.8266 11.234C17.4239 11.0418 17.0217 10.8497 16.6191 10.6608C16.5806 10.6429 16.5286 10.6575 16.4827 10.6575L16.4728 10.7053C16.9214 10.8909 17.3686 11.077 17.8167 11.2603ZM15.7299 8.887C15.8564 8.84575 16.3045 7.67669 16.3172 7.4231L15.7299 8.887ZM12.4439 11.2354C12.45 11.2453 12.4566 11.257 12.4636 11.2668C12.9056 11.0784 13.3486 10.8876 13.7906 10.6983C13.7799 10.6753 13.7686 10.6514 13.7602 10.627C13.3088 10.8018 12.8859 11.0409 12.4439 11.2354ZM16.5802 10.3753C16.582 10.3837 16.583 10.3912 16.5853 10.3992C16.7738 10.4681 16.9594 10.5473 17.152 10.6054C17.2425 10.6322 17.3475 10.6331 17.4422 10.62C17.7 10.5867 17.9297 10.6533 18.1599 10.7662C18.1327 10.7268 18.1036 10.6776 18.0642 10.6664C17.917 10.627 17.7638 10.5698 17.6156 10.5768C17.3789 10.5862 17.1577 10.5759 16.9472 10.4573C16.876 10.4214 16.8006 10.3946 16.7227 10.3776C16.6772 10.3654 16.628 10.3753 16.5802 10.3753ZM17.1216 12.0426C17.119 12.0476 17.1156 12.0522 17.1117 12.0562C16.8474 11.7661 16.5849 11.474 16.3181 11.1848C16.2924 11.1567 16.2464 11.1492 16.2099 11.1314C16.207 11.1398 16.2038 11.145 16.2019 11.1525C16.507 11.4497 16.8155 11.7464 17.1216 12.0426ZM17.8172 10.6762C17.5833 10.6762 17.3681 10.7011 17.1609 10.6683C16.9519 10.6359 16.7681 10.4765 16.5192 10.515C16.5394 10.5539 16.5488 10.5951 16.5642 10.5961C16.972 10.6368 17.3611 10.875 17.8172 10.6762ZM13.7311 9.89856C13.7405 9.87653 13.7499 9.85403 13.7602 9.832C13.7109 9.8081 13.6645 9.77669 13.612 9.76356C13.4944 9.73591 13.3645 9.74106 13.2558 9.69372C13.0153 9.58685 12.787 9.63044 12.5456 9.72185C12.9741 9.56247 13.3327 9.86106 13.7311 9.89856ZM13.6425 7.93872C13.6308 7.94669 13.6205 7.95513 13.6102 7.96356C13.687 8.04231 13.7545 8.13091 13.8413 8.19653C13.9702 8.29122 14.0574 8.40841 14.1188 8.55841C14.167 8.67888 14.2331 8.79325 14.3002 8.90481C14.318 8.93388 14.3714 8.94044 14.408 8.95591C14.3986 8.91466 14.4005 8.8645 14.3789 8.83356C14.1511 8.52044 13.9899 8.15388 13.6425 7.93872ZM14.8191 11.5809C14.6522 11.6765 14.5495 12.4603 14.655 12.7804C14.6639 12.584 14.6372 12.3801 14.6705 12.1889C14.7075 11.9901 14.8449 11.8148 14.8191 11.5809ZM16.3214 11.0015C16.3036 11.0222 16.2872 11.0428 16.2694 11.0648C16.4302 11.1881 16.582 11.3283 16.7559 11.4318C16.9369 11.5401 17.1389 11.6137 17.3325 11.7023L17.3583 11.6461C17.2908 11.6165 17.228 11.5711 17.1586 11.5579C16.9542 11.5214 16.7981 11.4145 16.657 11.2659C16.5614 11.1637 16.4353 11.0878 16.3214 11.0015ZM15.6839 12.8545C15.667 12.7889 15.6661 12.6886 15.6178 12.6215C15.4655 12.4092 15.442 12.1743 15.4491 11.9236C15.4509 11.8176 15.4134 11.7122 15.3886 11.5762C15.3422 11.6217 15.3169 11.6353 15.3188 11.6447C15.4074 12.0633 15.375 12.5165 15.6839 12.8545ZM14.6484 13.1325C14.662 13.1353 14.6761 13.1372 14.6888 13.1414C14.7155 12.9937 14.7741 12.8442 14.7619 12.7003C14.738 12.4331 14.7656 12.187 14.895 11.9508C14.9255 11.8945 14.9433 11.8275 14.9559 11.7647C14.9644 11.722 14.9503 11.6747 14.947 11.6292C14.8514 11.8542 14.7319 12.0736 14.7202 12.3C14.7056 12.5733 14.7272 12.8475 14.6363 13.1142C14.6349 13.1175 14.6452 13.1268 14.6484 13.1325ZM14.5959 7.51638C14.6119 7.57966 14.6119 7.68888 14.6644 7.76294C14.8134 7.9781 14.8374 8.21294 14.8308 8.46278C14.8289 8.56872 14.8664 8.67372 14.8866 8.77872C14.9058 8.78481 14.925 8.78856 14.9424 8.79325C14.9508 8.77591 14.9644 8.75716 14.9611 8.74122C14.8791 8.31185 14.8852 7.85716 14.5959 7.51638ZM12.9253 8.74825C13.0074 8.77778 13.0931 8.80028 13.1709 8.83919C13.3055 8.9081 13.4386 8.98028 13.5652 9.06466C13.6725 9.13778 13.7649 9.23435 13.8689 9.31356C13.8975 9.33419 13.9491 9.3281 13.9894 9.33419C13.9627 9.29575 13.9439 9.24841 13.9083 9.2231C13.8403 9.17435 13.7484 9.15185 13.6941 9.09372C13.4864 8.87341 13.2338 8.75013 12.9253 8.74825ZM16.5549 9.94731L16.5694 10.0167C16.9969 9.93325 17.4502 9.95435 17.8097 9.64638C17.7328 9.66794 17.6311 9.67591 17.5589 9.72513C17.3667 9.86153 17.1591 9.89294 16.9313 9.88919C16.8056 9.88685 16.6791 9.92622 16.5549 9.94731ZM15.9614 9.01872C15.9844 9.0356 16.0092 9.05106 16.0303 9.06794C16.207 8.69763 16.6177 8.46185 16.5989 7.96778C16.5666 8.04372 16.5211 8.10747 16.5103 8.17731C16.4761 8.38919 16.3627 8.54622 16.2113 8.69153C16.1133 8.78575 16.0434 8.9095 15.9614 9.01872ZM12.4842 10.7325C12.5419 10.7156 12.6342 10.7118 12.6984 10.6673C12.8981 10.5281 13.1133 10.4883 13.3514 10.4953C13.4728 10.4995 13.597 10.455 13.7203 10.432C13.7133 10.4095 13.71 10.3884 13.7039 10.3659C13.2811 10.4611 12.8241 10.4236 12.4842 10.7325ZM14.3114 11.3653L14.2416 11.3198C14.0728 11.6901 13.6613 11.924 13.68 12.4167C13.7114 12.3459 13.7531 12.2897 13.763 12.2292C13.7963 11.9986 13.9228 11.8279 14.0864 11.6709C14.1774 11.5837 14.2374 11.4684 14.3114 11.3653ZM14.2505 9.0581C14.2645 9.04778 14.2786 9.0356 14.2931 9.02388C14.0677 8.79091 14.0949 8.39481 13.7752 8.23403C13.8511 8.36294 13.9383 8.49841 14.0133 8.6395C14.0616 8.72997 14.0869 8.83216 14.1347 8.92263C14.1605 8.97419 14.2102 9.01356 14.2505 9.0581ZM15.2949 8.74919C15.3188 8.75669 15.3441 8.76185 15.3699 8.77028C15.375 8.45106 15.6539 8.19278 15.5663 7.89372C15.5124 8.05075 15.4458 8.23872 15.3853 8.42763C15.3511 8.5331 15.3253 8.64138 15.2949 8.74919ZM13.2089 11.5214C13.3613 11.4445 13.522 11.3643 13.6824 11.2823C13.7625 11.242 13.8436 11.2054 13.9186 11.1567C13.9472 11.1393 13.9613 11.0976 13.9809 11.0672L13.9533 11.0404C13.7409 11.2687 13.3636 11.2411 13.2084 11.5214H13.2089ZM16.2769 9.292C16.2905 9.31122 16.3045 9.3295 16.3181 9.34731C16.5286 9.11763 16.9027 9.14294 17.0569 8.88466C16.882 8.96575 16.6805 9.05622 16.4841 9.15513C16.41 9.19122 16.3449 9.2456 16.2769 9.292ZM16.4808 12.1326C16.4058 12.0042 16.3313 11.8828 16.2656 11.7553C16.2155 11.6597 16.185 11.5537 16.1358 11.459C16.1109 11.4126 16.0608 11.3789 16.0233 11.3395L15.9877 11.369C16.2117 11.5875 16.185 11.9615 16.4808 12.1326ZM13.1442 11.639C12.9595 11.7445 12.8147 11.8884 12.6047 11.9062C12.7275 11.9822 12.9647 11.8668 13.1442 11.639ZM16.6847 12.2686L16.6481 12.2897C16.7105 12.3979 16.7714 12.5058 16.8328 12.6154C16.8474 12.6056 16.8624 12.5976 16.8774 12.5873C16.8127 12.4818 16.7489 12.374 16.6847 12.2686ZM13.4466 7.76294C13.432 7.77185 13.4175 7.78169 13.403 7.78966C13.4663 7.90028 13.53 8.00903 13.5924 8.11825C13.605 8.11216 13.6181 8.10466 13.6299 8.09856L13.4466 7.76294Z" fill="#7B4022"/>
<path fill-rule="evenodd" clip-rule="evenodd" d="M14.828 11.4046C14.8781 11.4581 14.9124 11.4932 14.9456 11.5284C14.3513 11.5274 13.7836 10.8993 13.7709 10.2309C13.7583 9.49775 14.3236 8.87291 15.0324 8.83682C15.7974 8.80025 16.433 9.34635 16.4902 10.0898C16.5427 10.7779 16.0242 11.4571 15.3839 11.519C15.4045 11.4815 15.42 11.4492 15.4411 11.4088C15.1631 11.5096 15.1631 11.5096 14.828 11.4046ZM15.3999 10.3406C15.3947 10.3542 15.3895 10.3696 15.383 10.3832C15.3947 10.3893 15.4092 10.394 15.4167 10.4029C15.4463 10.4376 15.4739 10.4718 15.502 10.5079C15.4603 10.5159 15.4167 10.5267 15.3736 10.5328C15.3497 10.5365 15.3145 10.5229 15.3009 10.5346C15.1753 10.6499 15.0628 10.6124 14.9484 10.5435C14.8922 10.5356 14.8359 10.5271 14.7797 10.5178L14.8866 10.3443C14.8313 10.3598 14.7656 10.3612 14.7324 10.3935C14.7028 10.4212 14.6869 10.4981 14.7056 10.5295C14.7314 10.574 14.7905 10.6063 14.842 10.6265C14.8805 10.641 14.9269 10.6293 14.97 10.6293L14.9789 10.6687C14.9259 10.6846 14.8716 10.7156 14.8191 10.7132C14.7399 10.7104 14.6639 10.7132 14.6639 10.807C14.6649 10.8862 14.7225 10.9392 14.8149 10.9392C15.0333 10.9373 15.2517 10.9382 15.4692 10.9373C15.487 10.9373 15.5138 10.9401 15.5236 10.9293C15.5578 10.8867 15.5995 10.8421 15.6131 10.7929C15.6164 10.7751 15.548 10.7254 15.5063 10.7128C15.4322 10.6921 15.3544 10.687 15.2784 10.6767C15.2784 10.664 15.2784 10.6509 15.2794 10.6368C15.3253 10.6331 15.3731 10.6382 15.4167 10.6256C15.4697 10.6087 15.5391 10.589 15.5667 10.5482C15.5883 10.5131 15.5794 10.431 15.5508 10.3963C15.5199 10.3603 15.4524 10.3574 15.3999 10.3406ZM14.3199 9.65666C14.7572 9.53478 14.9353 9.56291 14.9517 9.7565C14.7258 9.66275 14.5097 9.62947 14.3133 9.83619C14.5125 10.0401 14.7333 10.0031 14.9611 9.929C14.8069 10.0692 14.6231 10.0631 14.4319 10.0528C14.5158 10.0921 14.6044 10.1273 14.6916 10.1245C14.7802 10.1217 14.8674 10.0781 14.9681 10.0495V10.3406C15.0539 10.1976 15.0755 9.7565 15.0084 9.64072C14.9949 9.61583 14.976 9.59423 14.9531 9.57744C14.8045 9.45791 14.4403 9.45322 14.3199 9.65666ZM15.9614 9.83572C15.7641 9.62666 15.5447 9.66603 15.3024 9.76072C15.3427 9.57697 15.4819 9.584 15.5906 9.58307C15.7059 9.58307 15.8213 9.6215 15.9689 9.64963C15.8114 9.49635 15.6558 9.46869 15.48 9.509C15.2991 9.55072 15.2353 9.61775 15.2311 9.79822C15.2274 9.94353 15.2395 10.0907 15.248 10.236C15.2503 10.2665 15.2709 10.2974 15.2836 10.3274L15.315 10.3213V10.0382C15.5016 10.1245 15.6722 10.1826 15.8766 10.0228C15.6516 10.0663 15.4688 10.0663 15.315 9.929C15.5428 10.0082 15.7599 10.0373 15.9614 9.83572ZM14.9147 11.1853H15.3689C15.3056 11.1553 15.2588 11.1313 15.2124 11.1084C15.2124 11.0967 15.2109 11.0845 15.21 11.0742C15.2902 11.0742 15.3689 11.0671 15.4472 11.0751C15.548 11.0878 15.5822 11.0728 15.6113 10.9921H14.6644C14.7145 11.0306 14.7769 11.061 14.8411 11.0699C14.9236 11.0798 15.007 11.0718 15.09 11.0718C15.09 11.0835 15.09 11.0967 15.0881 11.1084C15.0352 11.1313 14.9822 11.1562 14.9156 11.1853" fill="#FDD12E"/>
<path fill-rule="evenodd" clip-rule="evenodd" d="M13.8183 10.8937L12.4285 11.3864C12.4242 11.3765 12.4214 11.3676 12.4167 11.3578C12.8827 11.159 13.3467 10.9598 13.8474 10.7465C13.8314 10.8173 13.8225 10.8567 13.816 10.8975L13.8183 10.8937Z" fill="#FDD12E"/>
<path fill-rule="evenodd" clip-rule="evenodd" d="M16.4437 10.7672C16.9205 10.9654 17.3991 11.1632 17.8772 11.3615C17.6194 11.3498 16.492 10.9167 16.4227 10.8178L16.4437 10.7672Z" fill="#FDD12E"/>
<path fill-rule="evenodd" clip-rule="evenodd" d="M16.4766 9.4828L16.3538 9.46217L16.3383 9.40686C16.4724 9.32998 16.6022 9.23717 16.7447 9.17998C16.9135 9.11155 17.0433 9.01358 17.1483 8.86686C17.205 8.78998 17.2899 8.73186 17.37 8.67561C17.4642 8.60717 17.5702 8.54998 17.6869 8.50592C17.6358 8.54576 17.5889 8.59217 17.5331 8.6217C17.3799 8.70467 17.2692 8.82186 17.168 8.96342C17.0986 9.06092 16.9763 9.12233 16.8764 9.19639C16.7433 9.29483 16.6069 9.39186 16.4728 9.48842L16.4766 9.4828Z" fill="#FDD12E"/>
<path fill-rule="evenodd" clip-rule="evenodd" d="M16.4719 9.48749C16.9303 9.32671 17.3878 9.16639 17.8472 9.00702C17.8495 9.01593 17.8542 9.02389 17.8566 9.0328C17.4085 9.22311 16.9599 9.41483 16.5108 9.60467C16.4902 9.61264 16.4606 9.60327 16.4349 9.60233L16.4766 9.4828L16.4719 9.48749Z" fill="#FDD12E"/>
<path fill-rule="evenodd" clip-rule="evenodd" d="M15.1786 13.1766V11.6334C15.1894 11.6287 15.1997 11.6245 15.2109 11.6189C15.232 11.6522 15.2714 11.6864 15.2691 11.7178C15.2508 12.2044 15.225 12.6919 15.1997 13.1784L15.1786 13.1766Z" fill="#FDD12E"/>
<path fill-rule="evenodd" clip-rule="evenodd" d="M15.1758 8.77683V7.22105L15.1955 7.21918C15.2109 7.48074 15.2288 7.7423 15.2419 8.00293C15.2775 8.70652 15.2775 8.70652 15.1758 8.77683Z" fill="#FDD12E"/>
<path fill-rule="evenodd" clip-rule="evenodd" d="M16.2113 7.51406C16.0294 7.96312 15.8489 8.41453 15.6614 8.87625C15.5489 8.79609 15.6 8.71922 15.6319 8.655C15.7692 8.35453 15.9136 8.05922 16.0552 7.76156C16.0969 7.67344 16.1405 7.58672 16.1827 7.5C16.1925 7.50422 16.2014 7.50844 16.2113 7.51406Z" fill="#FDD12E"/>
<path fill-rule="evenodd" clip-rule="evenodd" d="M15.0938 11.5983V13.1765C15.0099 12.8428 14.9892 11.7028 15.0938 11.5983Z" fill="#FDD12E"/>
<path fill-rule="evenodd" clip-rule="evenodd" d="M16.5516 10.1151C16.5961 10.0968 16.6411 10.0579 16.6847 10.0603C17.1581 10.0818 17.6316 10.1095 18.1003 10.1601H16.568C16.5615 10.1453 16.5554 10.1303 16.5497 10.1151" fill="#FDD12E"/>
<path fill-rule="evenodd" clip-rule="evenodd" d="M18.1163 10.2497C17.5983 10.2783 17.0817 10.3345 16.5642 10.3238L16.5633 10.2497H18.1163Z" fill="#FDD12E"/>
<path fill-rule="evenodd" clip-rule="evenodd" d="M12.1608 10.2159C12.6366 10.2159 13.111 10.215 13.5863 10.2192C13.6228 10.2201 13.6613 10.2525 13.6988 10.2703C13.657 10.2918 13.6144 10.3326 13.5731 10.3317C13.3289 10.3256 13.0852 10.3097 12.8414 10.2961C12.6131 10.2843 12.3858 10.2693 12.1589 10.2567C12.1608 10.2431 12.1608 10.23 12.1608 10.2159Z" fill="#FDD12E"/>
<path fill-rule="evenodd" clip-rule="evenodd" d="M15.0938 7.21777V8.7609C15.0797 8.76465 15.0656 8.76981 15.052 8.77449C15.0342 8.72996 14.9991 8.68496 15 8.64324C15.023 8.1684 15.0492 7.69449 15.075 7.22293L15.0938 7.21871" fill="#FDD12E"/>
<path fill-rule="evenodd" clip-rule="evenodd" d="M12.2109 10.1409C12.4552 10.08 13.6134 10.0514 13.7287 10.1409H12.2109Z" fill="#FDD12E"/>
<path fill-rule="evenodd" clip-rule="evenodd" d="M17.1919 8.08593C16.8905 8.39296 16.5895 8.7014 16.2891 9.00843C16.2497 9.04781 16.2131 9.0914 16.17 9.12702C16.1531 9.14062 16.1231 9.13968 16.0988 9.14531C16.0969 9.12093 16.0899 9.09421 16.095 9.07077C16.1028 9.04829 16.1168 9.02846 16.1353 9.01359C16.4808 8.69765 16.8267 8.38124 17.1717 8.06671C17.1787 8.07319 17.1854 8.07992 17.1919 8.08687" fill="#FDD12E"/>
<path fill-rule="evenodd" clip-rule="evenodd" d="M15.6 11.7154V11.5387C15.6188 11.535 15.6375 11.5326 15.6563 11.5308C15.8508 11.9986 16.0444 12.4669 16.2399 12.9356C16.2291 12.9394 16.2192 12.9454 16.2094 12.9492C16.1166 12.7579 16.0266 12.5653 15.9328 12.3745C15.8222 12.1514 15.7092 11.9315 15.5972 11.7103L15.6 11.7154Z" fill="#FDD12E"/>
<path fill-rule="evenodd" clip-rule="evenodd" d="M13.0617 12.3759C13.0838 12.3365 13.0974 12.2901 13.1274 12.2596C13.4311 11.9446 13.7367 11.6306 14.0442 11.3221C14.0756 11.2907 14.1328 11.2846 14.1788 11.265C14.1577 11.3123 14.1492 11.3718 14.1155 11.4028C13.7836 11.7079 13.4471 12.0103 13.1128 12.3131C13.0922 12.3309 13.0786 12.3548 13.0617 12.3764V12.3773" fill="#FDD12E"/>
<path fill-rule="evenodd" clip-rule="evenodd" d="M15.4284 8.78762C15.4687 8.64043 15.4969 8.49043 15.5541 8.35121C15.6211 8.18996 15.6436 8.03293 15.6239 7.85808C15.6112 7.73668 15.6394 7.60871 15.6572 7.48496C15.6698 7.39121 15.6947 7.29886 15.7186 7.18402C15.7322 7.21261 15.7552 7.23699 15.7509 7.2548C15.6783 7.50558 15.6525 7.75824 15.7144 8.01793C15.7284 8.07511 15.6909 8.14496 15.6759 8.20824C15.6375 8.37136 15.6009 8.53496 15.5606 8.69715C15.5489 8.7384 15.5222 8.7759 15.5016 8.81527L15.4284 8.78762Z" fill="#FDD12E"/>
<path fill-rule="evenodd" clip-rule="evenodd" d="M14.6719 8.68027V8.84761L14.6156 8.85933C14.4295 8.41121 14.2434 7.96215 14.0569 7.51496C14.067 7.50915 14.0777 7.50429 14.0888 7.50043C14.1769 7.68183 14.2622 7.86558 14.3527 8.04699C14.4581 8.26027 14.5669 8.47261 14.6742 8.68355L14.6719 8.68027Z" fill="#FDD12E"/>
<path fill-rule="evenodd" clip-rule="evenodd" d="M13.0617 12.375C13.0317 12.3707 13.0008 12.3661 12.9694 12.3632C12.9942 12.2011 13.9435 11.1656 14.0977 11.1539C14.0424 11.2195 14.002 11.2725 13.9552 11.3198C13.665 11.6156 13.3739 11.9109 13.0847 12.2062C13.0369 12.2554 12.9661 12.3051 13.0617 12.3759V12.375Z" fill="#FDD12E"/>
<path fill-rule="evenodd" clip-rule="evenodd" d="M14.6672 11.5378C14.6672 11.5847 14.6831 11.6395 14.6653 11.677C14.4863 12.0651 14.302 12.45 14.1192 12.8353C14.1075 12.8311 14.0967 12.8254 14.0869 12.8217C14.2584 12.3923 14.4314 11.9615 14.6044 11.5322C14.6245 11.5331 14.6466 11.535 14.6672 11.5378Z" fill="#FDD12E"/>
<path fill-rule="evenodd" clip-rule="evenodd" d="M13.4409 12.7031C13.4719 12.7003 13.5174 12.7055 13.5291 12.6895C13.6449 12.5208 13.8009 12.3825 13.8516 12.1655C13.8825 12.0333 13.9805 11.9128 14.0649 11.7975C14.16 11.6662 14.2734 11.5467 14.4089 11.4272C14.4028 11.4684 14.4089 11.52 14.3869 11.5514C14.3288 11.6297 14.2678 11.7117 14.1919 11.7717C14.0128 11.9123 13.9233 12.1017 13.8342 12.3033C13.7709 12.4495 13.6603 12.5775 13.5628 12.7059C13.5408 12.7355 13.4817 12.7359 13.4409 12.7514V12.7031Z" fill="#FDD12E"/>
<path fill-rule="evenodd" clip-rule="evenodd" d="M13.0809 8.0578C13.147 8.11499 13.2127 8.17217 13.2759 8.22936C13.5361 8.46233 13.7944 8.6953 14.0531 8.93014C14.0831 8.95921 14.1211 8.98264 14.1445 9.01827C14.1642 9.04874 14.1675 9.09046 14.1792 9.12608C14.1445 9.11436 14.1009 9.11202 14.0775 9.08952C13.8474 8.86499 13.6224 8.63718 13.3941 8.41124C13.2826 8.30169 13.1698 8.19356 13.0556 8.08686C13.0641 8.07655 13.0739 8.06718 13.0809 8.0578Z" fill="#FDD12E"/>
<path fill-rule="evenodd" clip-rule="evenodd" d="M17.1905 12.3375C16.9683 12.1368 16.7442 11.9386 16.5202 11.7365C16.3922 11.6198 16.2614 11.5036 16.1381 11.3817C16.1095 11.354 16.1058 11.3029 16.0917 11.2621C16.1283 11.2748 16.178 11.2781 16.2033 11.3048C16.5417 11.6386 16.8792 11.9742 17.2139 12.3089C17.2071 12.3192 17.1993 12.3288 17.1905 12.3375Z" fill="#FDD12E"/>
<path fill-rule="evenodd" clip-rule="evenodd" d="M13.0294 8.17261L14.077 9.21136C14.0728 9.22308 14.0677 9.23526 14.0644 9.24698C14.0194 9.22308 13.9645 9.21042 13.9317 9.17573C13.7048 8.93198 13.4817 8.68308 13.2577 8.43651C13.1784 8.34933 13.1016 8.26261 13.0233 8.17589C13.0253 8.17471 13.0273 8.17362 13.0294 8.17261Z" fill="#FDD12E"/>
<path fill-rule="evenodd" clip-rule="evenodd" d="M12.4191 9.03748C12.7927 9.07966 13.7972 9.48044 13.853 9.62576C13.3552 9.42138 12.8873 9.22873 12.4191 9.03748Z" fill="#FDD12E"/>
<path fill-rule="evenodd" clip-rule="evenodd" d="M16.1817 9.21701L17.3053 8.1717C17.297 8.1618 17.2879 8.15255 17.2781 8.14404C16.928 8.51717 16.6078 8.91889 16.2375 9.27326C16.2186 9.25487 16.2 9.23611 16.1817 9.21701Z" fill="#FDD12E"/>
<path fill-rule="evenodd" clip-rule="evenodd" d="M16.5141 9.82313C16.5727 9.79829 16.6294 9.76313 16.6908 9.75329C16.7702 9.74088 16.851 9.73946 16.9308 9.74907C17.161 9.77719 17.3644 9.7036 17.5706 9.61407C17.7071 9.55594 17.8617 9.53719 18.008 9.49969C18.0131 9.52032 18.0178 9.54094 18.0239 9.56204C17.9499 9.57329 17.8758 9.58079 17.8046 9.60048C17.6841 9.63469 17.5674 9.67735 17.4469 9.71391C17.3189 9.75329 17.1924 9.80438 17.0621 9.82313C16.8877 9.84985 16.7096 9.84985 16.5328 9.86157C16.5272 9.84849 16.5209 9.83566 16.5141 9.82313Z" fill="#FDD12E"/>
<path fill-rule="evenodd" clip-rule="evenodd" d="M15.8423 8.95308C15.87 8.89496 15.8906 8.83074 15.9272 8.78058C15.9755 8.7159 16.0331 8.6559 16.095 8.60855C16.2736 8.47449 16.3547 8.2823 16.44 8.08636C16.5005 7.94715 16.5994 7.82386 16.6917 7.70293C16.7175 7.6673 16.7798 7.65933 16.8272 7.65277C16.6603 7.75027 16.5338 7.90308 16.4883 8.06433C16.4114 8.34699 16.2661 8.56543 16.0617 8.76136C15.9966 8.82465 15.9516 8.90762 15.8967 8.98027C15.8789 8.97056 15.8608 8.96149 15.8423 8.95308Z" fill="#FDD12E"/>
<path fill-rule="evenodd" clip-rule="evenodd" d="M13.9744 7.47937L14.5547 8.87906L14.5233 8.90812C14.4938 8.88421 14.4455 8.86968 14.4347 8.83968C14.2683 8.39156 14.107 7.94156 13.9449 7.49109C13.955 7.48808 13.9649 7.48416 13.9744 7.47937Z" fill="#FDD12E"/>
<path fill-rule="evenodd" clip-rule="evenodd" d="M13.7836 9.73448C13.7428 9.73448 13.6964 9.74807 13.6622 9.73167C13.2553 9.54229 12.8499 9.34776 12.4575 9.12323C12.9019 9.30698 13.3463 9.49026 13.7916 9.67307C13.7888 9.69417 13.7855 9.71386 13.7836 9.73448Z" fill="#FDD12E"/>
<path fill-rule="evenodd" clip-rule="evenodd" d="M13.9692 13.0059C13.9289 12.8709 14.3883 11.5687 14.5444 11.4712C14.5224 11.541 14.5125 11.5865 14.4956 11.6301C14.3363 12.0281 14.1755 12.4237 14.0184 12.8217C13.9931 12.8845 13.9819 12.9529 13.9692 13.0059Z" fill="#FDD12E"/>
<path fill-rule="evenodd" clip-rule="evenodd" d="M17.8875 9.12654C17.4267 9.33841 16.9767 9.57654 16.5075 9.77013C16.4972 9.74341 16.485 9.71904 16.4733 9.69326C16.9392 9.49357 17.4028 9.29482 17.8683 9.09607L17.8875 9.12654Z" fill="#FDD12E"/>
<path fill-rule="evenodd" clip-rule="evenodd" d="M14.6766 8.68358C14.7056 8.35498 14.7103 8.03389 14.5406 7.72733C14.4773 7.60967 14.4773 7.4578 14.4398 7.28717C14.4942 7.31858 14.5083 7.32139 14.5083 7.32655C14.5308 7.58014 14.5861 7.82342 14.7272 8.0442C14.7638 8.10139 14.7619 8.18858 14.7638 8.26217C14.768 8.43936 14.7647 8.61702 14.7647 8.79373C14.7352 8.75709 14.7058 8.72037 14.6766 8.68358Z" fill="#FDD12E"/>
<path fill-rule="evenodd" clip-rule="evenodd" d="M15.6 11.7107C15.5709 12.0342 15.5573 12.3553 15.7322 12.6529C15.8081 12.7809 15.8278 12.9304 15.8048 13.0556C15.7144 12.802 15.5948 12.5409 15.5306 12.2657C15.4814 12.0515 15.5002 11.8223 15.487 11.5635L15.6014 11.7145C15.6028 11.7159 15.6 11.7112 15.6 11.7112" fill="#FDD12E"/>
<path fill-rule="evenodd" clip-rule="evenodd" d="M15.8372 11.5162L16.298 12.8273C16.2872 12.8301 16.2783 12.8344 16.2684 12.8372C16.0847 12.3933 15.9014 11.9484 15.7167 11.5055C15.727 11.4975 15.7373 11.4895 15.7477 11.4825C15.7786 11.4951 15.8091 11.5073 15.8395 11.5214L15.8372 11.5162Z" fill="#FDD12E"/>
<path fill-rule="evenodd" clip-rule="evenodd" d="M17.8125 11.264C17.3644 11.0803 16.9172 10.8947 16.4691 10.709C16.4724 10.694 16.4761 10.6776 16.4789 10.6612C16.5249 10.6612 16.5769 10.6467 16.6153 10.6645C17.018 10.8529 17.4202 11.0456 17.8228 11.2378L17.8125 11.264Z" fill="#FDD12E"/>
<path fill-rule="evenodd" clip-rule="evenodd" d="M15.7266 8.8903L16.3139 7.42639C16.3008 7.67999 15.8527 8.84905 15.7266 8.8903Z" fill="#FDD12E"/>
<path fill-rule="evenodd" clip-rule="evenodd" d="M15.84 11.5214C15.8527 11.4848 15.8639 11.4473 15.8827 11.3887C16.0739 11.5481 16.1039 11.7717 16.2174 11.9419C16.3275 12.1087 16.4939 12.2414 16.6261 12.3961C16.4395 12.2611 16.2267 12.1655 16.1264 11.9273C16.0631 11.7764 15.9361 11.6536 15.8377 11.5186L15.84 11.5223" fill="#FDD12E"/>
<path fill-rule="evenodd" clip-rule="evenodd" d="M12.4411 11.2392C12.8831 11.0446 13.3059 10.8056 13.7574 10.6307C13.7663 10.6556 13.777 10.6795 13.7878 10.702C13.3458 10.8914 12.9028 11.0821 12.4608 11.2706C12.4538 11.2603 12.4472 11.2486 12.4411 11.2392Z" fill="#FDD12E"/>
<path fill-rule="evenodd" clip-rule="evenodd" d="M16.5797 10.3781C16.6275 10.3781 16.6767 10.3682 16.7222 10.3804C16.7991 10.3992 16.8769 10.4226 16.9467 10.4601C17.1572 10.5787 17.3784 10.5886 17.6152 10.5796C17.7633 10.5726 17.9166 10.6298 18.0638 10.6692C18.1031 10.68 18.1322 10.7296 18.1594 10.769C17.9292 10.6565 17.6995 10.5895 17.4417 10.6228C17.345 10.6375 17.2463 10.6325 17.1516 10.6082C16.9589 10.5501 16.7733 10.4709 16.5849 10.402C16.5825 10.394 16.5816 10.3861 16.5797 10.3781Z" fill="#FDD12E"/>
<path fill-rule="evenodd" clip-rule="evenodd" d="M17.1188 12.0464C16.8131 11.7501 16.5042 11.4529 16.1986 11.1562C16.2005 11.1487 16.2038 11.1436 16.2066 11.1351C16.2431 11.1529 16.2895 11.1609 16.3149 11.1886C16.5816 11.4778 16.8441 11.7698 17.1085 12.06C17.1126 12.0561 17.1161 12.0515 17.1188 12.0464Z" fill="#FDD12E"/>
<path fill-rule="evenodd" clip-rule="evenodd" d="M17.8125 10.68C17.3564 10.8787 16.9674 10.6406 16.5591 10.5998C16.5441 10.5989 16.5342 10.5576 16.5141 10.5187C16.763 10.4803 16.9467 10.6396 17.1558 10.672C17.3635 10.7048 17.5786 10.68 17.8125 10.68Z" fill="#FDD12E"/>
<path fill-rule="evenodd" clip-rule="evenodd" d="M13.7297 9.90467C13.3308 9.86717 12.9727 9.56857 12.5442 9.72795C12.7833 9.63701 13.013 9.59342 13.2544 9.69983C13.3627 9.74764 13.493 9.74248 13.6106 9.76967C13.6631 9.78232 13.7095 9.8142 13.7588 9.83811C13.7485 9.86014 13.7391 9.88264 13.7297 9.90467Z" fill="#FDD12E"/>
<path fill-rule="evenodd" clip-rule="evenodd" d="M13.8155 10.8984C13.8502 10.912 13.8853 10.927 13.9341 10.9467C13.7808 11.1206 13.5755 11.1651 13.4091 11.2696C13.2488 11.3695 13.1255 11.5251 12.9783 11.6498C13.0791 11.4623 13.1883 11.2921 13.4006 11.1937C13.5525 11.1224 13.6791 10.9959 13.8183 10.8942L13.8155 10.8984Z" fill="#FDD12E"/>
<path fill-rule="evenodd" clip-rule="evenodd" d="M13.6406 7.9425C13.988 8.15766 14.1492 8.52375 14.377 8.83782C14.3986 8.86829 14.3967 8.91891 14.4061 8.96016C14.3695 8.94469 14.3161 8.93766 14.2983 8.90907C14.2287 8.79859 14.1681 8.68276 14.1169 8.56266C14.0611 8.41788 13.9647 8.29225 13.8394 8.20079C13.7522 8.13516 13.6852 8.04657 13.6083 7.96782C13.6185 7.95864 13.6293 7.95019 13.6406 7.9425Z" fill="#FDD12E"/>
<path fill-rule="evenodd" clip-rule="evenodd" d="M14.8163 11.5847C14.842 11.8186 14.7047 11.9939 14.6681 12.1926C14.6349 12.3839 14.6611 12.5878 14.6527 12.7842C14.5467 12.464 14.6494 11.6803 14.8163 11.5847Z" fill="#FDD12E"/>
<path fill-rule="evenodd" clip-rule="evenodd" d="M16.3186 11.0053C16.432 11.092 16.5586 11.168 16.6542 11.2697C16.7958 11.4183 16.9519 11.5252 17.1558 11.5617C17.2247 11.5744 17.288 11.6198 17.3555 11.6498L17.3297 11.7061C17.1361 11.6175 16.9336 11.5439 16.7531 11.4356C16.5792 11.3316 16.4274 11.1914 16.2666 11.0686C16.2844 11.0461 16.3008 11.0255 16.3186 11.0053Z" fill="#FDD12E"/>
<path fill-rule="evenodd" clip-rule="evenodd" d="M15.6811 12.8583C15.3722 12.5203 15.4045 12.067 15.316 11.648C15.3141 11.6386 15.3399 11.625 15.3858 11.5795C15.4106 11.7155 15.4481 11.8214 15.4463 11.9269C15.4392 12.1777 15.4627 12.4125 15.615 12.6248C15.6633 12.6919 15.6642 12.7927 15.6811 12.8583Z" fill="#FDD12E"/>
<path fill-rule="evenodd" clip-rule="evenodd" d="M14.6438 13.1344C14.6405 13.1283 14.6302 13.1194 14.632 13.1156C14.7225 12.8489 14.701 12.5747 14.716 12.3014C14.7277 12.0755 14.8472 11.8561 14.9428 11.6306C14.9461 11.6761 14.9597 11.7234 14.9517 11.7661C14.9408 11.8308 14.9203 11.8935 14.8908 11.9522C14.7614 12.1884 14.7338 12.4341 14.7577 12.7017C14.7694 12.8461 14.7108 12.9951 14.6845 13.1428C14.6714 13.1391 14.6574 13.1372 14.6438 13.1344Z" fill="#FDD12E"/>
<path fill-rule="evenodd" clip-rule="evenodd" d="M14.5922 7.51874C14.8814 7.85952 14.8753 8.3142 14.9574 8.74358C14.9606 8.75952 14.947 8.77827 14.9386 8.79561C14.9213 8.79092 14.902 8.7867 14.8828 8.78108C14.8627 8.67608 14.8252 8.57108 14.827 8.46514C14.8336 8.2153 14.8097 7.98046 14.6606 7.7653C14.6081 7.69124 14.6081 7.58202 14.5922 7.51874Z" fill="#FDD12E"/>
<path fill-rule="evenodd" clip-rule="evenodd" d="M12.9225 8.75201C13.2305 8.75389 13.4831 8.87764 13.6917 9.09748C13.7461 9.15561 13.8385 9.17858 13.906 9.22686C13.9416 9.25264 13.9603 9.29951 13.987 9.33795C13.9467 9.33186 13.8952 9.33795 13.8666 9.31733C13.762 9.23811 13.6702 9.14155 13.5628 9.06842C13.436 8.98561 13.3043 8.91032 13.1686 8.84295C13.0908 8.80405 13.0045 8.78155 12.9225 8.75201Z" fill="#FDD12E"/>
<path fill-rule="evenodd" clip-rule="evenodd" d="M12.7641 10.7395C12.8691 10.6828 12.9656 10.5937 13.0763 10.5754C13.2914 10.5398 13.5136 10.5435 13.7583 10.5295C13.7292 10.5642 13.7128 10.6017 13.6885 10.6087C13.617 10.6318 13.5423 10.6436 13.4672 10.6439C13.2258 10.6312 12.9891 10.6439 12.7622 10.7357L12.7641 10.7395Z" fill="#FDD12E"/>
<path fill-rule="evenodd" clip-rule="evenodd" d="M16.5516 9.95151C16.6763 9.92995 16.8024 9.89057 16.928 9.89339C17.1558 9.89761 17.3634 9.86573 17.5556 9.72932C17.6278 9.68011 17.7295 9.67214 17.8064 9.65057C17.4469 9.95854 16.9941 9.93745 16.5661 10.0209C16.5605 9.99839 16.5563 9.97448 16.5516 9.95151Z" fill="#FDD12E"/>
<path fill-rule="evenodd" clip-rule="evenodd" d="M15.9609 9.02343C16.043 8.91421 16.1128 8.79046 16.2108 8.69671C16.3617 8.5514 16.4752 8.39437 16.5098 8.18249C16.5206 8.11265 16.5661 8.0489 16.5984 7.97296C16.6172 8.46702 16.2066 8.7028 16.0298 9.07312C16.0083 9.05577 15.9839 9.0403 15.9609 9.02343Z" fill="#FDD12E"/>
<path fill-rule="evenodd" clip-rule="evenodd" d="M12.4814 10.7362C12.8213 10.4273 13.2783 10.4648 13.7011 10.3701C13.7072 10.3926 13.7109 10.4137 13.7175 10.4362C13.5942 10.4592 13.47 10.5037 13.3486 10.4995C13.1105 10.4925 12.8953 10.5323 12.6956 10.6715C12.6314 10.7156 12.5391 10.7193 12.4814 10.7362Z" fill="#FDD12E"/>
<path fill-rule="evenodd" clip-rule="evenodd" d="M14.3086 11.3672C14.2345 11.4703 14.1745 11.5856 14.0836 11.6723C13.9195 11.8294 13.7934 12 13.7602 12.2306C13.7503 12.2911 13.7091 12.3473 13.6772 12.4181C13.6584 11.9254 14.07 11.6915 14.2388 11.3212C14.2627 11.3362 14.2866 11.3526 14.3086 11.3672Z" fill="#FDD12E"/>
<path fill-rule="evenodd" clip-rule="evenodd" d="M13.0875 8.88048C13.2914 8.92407 13.455 9.02719 13.5933 9.18516C13.6814 9.28501 13.7995 9.36001 13.8952 9.47204C13.8488 9.46079 13.7949 9.45751 13.7583 9.43079C13.6866 9.37876 13.628 9.30938 13.5586 9.25407C13.4245 9.14813 13.2853 9.04876 13.1499 8.94516C13.1274 8.92641 13.1086 8.90157 13.0899 8.8786L13.0875 8.88048Z" fill="#FDD12E"/>
<path fill-rule="evenodd" clip-rule="evenodd" d="M17.2242 11.5022C17.0309 11.486 16.8517 11.3946 16.725 11.2476C16.6191 11.1323 16.4888 11.0405 16.3833 10.9055C16.4367 10.9294 16.4958 10.9439 16.5413 10.9772C16.6045 11.025 16.6697 11.077 16.7142 11.1422C16.8408 11.3259 17.041 11.4009 17.2205 11.5055L17.2242 11.5022Z" fill="#FDD12E"/>
<path fill-rule="evenodd" clip-rule="evenodd" d="M14.2477 9.06188C14.2074 9.01734 14.1581 8.97797 14.1314 8.92688C14.0836 8.83641 14.0583 8.73422 14.01 8.64375C13.935 8.50266 13.8478 8.36719 13.7719 8.23828C14.092 8.39906 14.0644 8.79516 14.2899 9.02813C14.2753 9.03938 14.2617 9.05156 14.2477 9.06188Z" fill="#FDD12E"/>
<path fill-rule="evenodd" clip-rule="evenodd" d="M15.292 8.75291C15.3225 8.64557 15.3483 8.53682 15.3825 8.43088C15.443 8.24244 15.5095 8.054 15.5634 7.89697C15.6516 8.19604 15.3722 8.45432 15.367 8.77354C15.3417 8.76557 15.3159 8.75994 15.292 8.75291Z" fill="#FDD12E"/>
<path fill-rule="evenodd" clip-rule="evenodd" d="M13.2047 11.5251C13.3599 11.2448 13.7372 11.2725 13.9495 11.0447L13.9772 11.0714C13.9575 11.1019 13.9434 11.1436 13.9149 11.1609C13.8399 11.2097 13.7588 11.2462 13.6786 11.2866C13.5178 11.3681 13.357 11.4483 13.2052 11.5251" fill="#FDD12E"/>
<path fill-rule="evenodd" clip-rule="evenodd" d="M12.7547 9.81795C12.878 9.8081 13.0102 9.7692 13.1255 9.79545C13.3191 9.83998 13.5038 9.9267 13.6945 10.0195C13.6313 10.0134 13.5642 10.0209 13.5061 9.99982C13.3866 9.96045 13.275 9.89248 13.1545 9.86248C13.0242 9.83013 12.8869 9.83013 12.7542 9.81795H12.7547Z" fill="#FDD12E"/>
<path fill-rule="evenodd" clip-rule="evenodd" d="M16.2746 9.29577C16.343 9.24937 16.4077 9.19499 16.4817 9.1589C16.6781 9.05999 16.8797 8.96952 17.0545 8.88843C16.9003 9.14718 16.5263 9.1214 16.3158 9.35108C16.3016 9.33301 16.2878 9.31457 16.2746 9.29577Z" fill="#FDD12E"/>
<path fill-rule="evenodd" clip-rule="evenodd" d="M16.4766 12.1354C16.1808 11.9648 16.2075 11.5903 15.983 11.3723L16.0186 11.3428C16.0561 11.3821 16.1067 11.4159 16.1311 11.4623C16.1803 11.557 16.2108 11.6629 16.261 11.7586C16.3271 11.8851 16.4016 12.0065 16.4766 12.1354Z" fill="#FDD12E"/>
<path fill-rule="evenodd" clip-rule="evenodd" d="M13.0898 8.87902C12.8827 8.90809 12.5606 8.65027 12.6023 8.50684C12.7195 8.67981 12.8798 8.80824 13.0866 8.88137L13.0898 8.87902Z" fill="#FDD12E"/>
<path fill-rule="evenodd" clip-rule="evenodd" d="M13.1438 11.6418C12.9642 11.8697 12.727 11.985 12.6042 11.9109C12.8142 11.8912 12.9595 11.7473 13.1438 11.6418Z" fill="#FDD12E"/>
<path fill-rule="evenodd" clip-rule="evenodd" d="M17.22 11.5054C17.4272 11.5293 17.5683 11.6489 17.6742 11.8171C17.6869 11.8349 17.6784 11.8673 17.6588 11.8912C17.6428 11.8546 17.6358 11.804 17.6086 11.7839C17.4839 11.6854 17.3536 11.5954 17.2256 11.5021L17.22 11.5054Z" fill="#FDD12E"/>
<path fill-rule="evenodd" clip-rule="evenodd" d="M12.7641 10.7362C12.6141 10.8609 12.4383 10.8726 12.2578 10.8642L12.2508 10.829C12.4224 10.7995 12.5939 10.7686 12.7659 10.7395L12.7641 10.7362Z" fill="#FDD12E"/>
<path fill-rule="evenodd" clip-rule="evenodd" d="M12.7547 9.81792C12.5569 9.83479 12.3638 9.82729 12.1997 9.68573C12.3844 9.73026 12.57 9.77479 12.7547 9.81792Z" fill="#FDD12E"/>
<path fill-rule="evenodd" clip-rule="evenodd" d="M16.6824 12.2719L16.8745 12.5911C16.86 12.6009 16.845 12.6089 16.83 12.6192C16.7691 12.5102 16.7075 12.4016 16.6453 12.2934C16.6584 12.2859 16.6702 12.2779 16.6824 12.2719Z" fill="#FDD12E"/>
<path fill-rule="evenodd" clip-rule="evenodd" d="M13.4442 7.76575L13.628 8.10137C13.6163 8.10747 13.6031 8.11497 13.5905 8.12106C13.5281 8.01184 13.4639 7.90309 13.4011 7.79247C13.4152 7.7845 13.4292 7.77465 13.4442 7.76575Z" fill="#FDD12E"/>
<path fill-rule="evenodd" clip-rule="evenodd" d="M15.3998 10.3406C15.4523 10.3575 15.5203 10.3607 15.5508 10.3959C15.5798 10.4306 15.5883 10.5126 15.5667 10.5478C15.5386 10.5885 15.4697 10.6082 15.4167 10.6251C15.3731 10.6378 15.3253 10.6331 15.2794 10.6364C15.2784 10.6504 15.2784 10.6635 15.2784 10.6762C15.3544 10.6865 15.4322 10.6917 15.5063 10.7123C15.548 10.7249 15.6159 10.7746 15.6131 10.7924C15.5995 10.8417 15.5578 10.8862 15.5236 10.9289C15.5138 10.9392 15.487 10.9368 15.4692 10.9368C15.2513 10.9378 15.0328 10.9368 14.8148 10.9387C14.7225 10.9387 14.6648 10.8857 14.6639 10.8065C14.6639 10.7128 14.7398 10.7099 14.8191 10.7128C14.8711 10.7151 14.9259 10.6842 14.9789 10.6682L14.97 10.6289C14.9264 10.6289 14.8805 10.6406 14.842 10.626C14.7905 10.6059 14.7314 10.5735 14.7056 10.529C14.6869 10.4976 14.7023 10.4207 14.7323 10.3931C14.7656 10.3607 14.8313 10.3593 14.8866 10.3439L14.7797 10.5173C14.8359 10.5267 14.8922 10.5351 14.9484 10.5431C15.0628 10.612 15.1753 10.6499 15.3009 10.5342C15.3145 10.5224 15.3497 10.536 15.3736 10.5323C15.4172 10.5262 15.4608 10.5154 15.502 10.5075C15.4743 10.4719 15.4458 10.4369 15.4167 10.4025C15.4088 10.3935 15.3947 10.3889 15.383 10.3828C15.3891 10.3692 15.3947 10.3542 15.3998 10.3406ZM14.9447 10.7671V10.8089H15.3328V10.7671H14.9447Z" fill="#7B4022"/>
<path fill-rule="evenodd" clip-rule="evenodd" d="M14.3199 9.65765C14.4403 9.45422 14.8045 9.4589 14.9527 9.57844C14.9755 9.59522 14.9944 9.61683 15.008 9.64172C15.0755 9.7575 15.0534 10.1986 14.9677 10.3416V10.0505C14.8669 10.0795 14.7802 10.1227 14.6911 10.1255C14.6039 10.1283 14.5153 10.0931 14.4314 10.0537C14.6227 10.0641 14.8064 10.0702 14.9606 9.93C14.7328 10.0041 14.512 10.0406 14.3128 9.83719C14.5092 9.63047 14.7253 9.66375 14.9513 9.7575C14.9349 9.56344 14.7567 9.53578 14.3199 9.65765ZM14.7755 9.8339C14.7225 9.79547 14.6859 9.74953 14.663 9.75703C14.6288 9.76687 14.603 9.81094 14.5744 9.84094C14.6039 9.86578 14.633 9.90515 14.663 9.9075C14.692 9.90937 14.7234 9.87094 14.7755 9.8339Z" fill="#7B4022"/>
<path fill-rule="evenodd" clip-rule="evenodd" d="M15.961 9.8367C15.7594 10.0383 15.5424 10.0087 15.3145 9.92952C15.4683 10.0669 15.6511 10.0669 15.8761 10.0233C15.6713 10.1831 15.5011 10.125 15.3145 10.0387V10.3219L15.2831 10.328C15.2705 10.298 15.2499 10.267 15.2475 10.2365C15.2386 10.0912 15.2269 9.94405 15.2306 9.79873C15.2349 9.61827 15.2991 9.55123 15.4795 9.50952C15.6553 9.4692 15.811 9.49686 15.9685 9.65014C15.8213 9.62202 15.7055 9.58358 15.5902 9.58358C15.4814 9.58452 15.3422 9.57748 15.3019 9.76123C15.5442 9.66702 15.7636 9.62764 15.961 9.8367ZM15.5756 9.95717L15.638 9.92389C15.6567 9.89248 15.6961 9.85686 15.6914 9.83014C15.6839 9.80061 15.6403 9.77811 15.6122 9.75233C15.5845 9.7828 15.5405 9.81045 15.5344 9.84514C15.5288 9.87936 15.5602 9.92014 15.5756 9.95717Z" fill="#7B4022"/>
<path fill-rule="evenodd" clip-rule="evenodd" d="M14.9147 11.1862L15.0867 11.1094C15.0886 11.0976 15.0886 11.0845 15.0886 11.0728C15.0056 11.0728 14.9222 11.0812 14.8397 11.0709C14.7751 11.0604 14.7143 11.0336 14.663 10.9931H15.6098C15.5808 11.0737 15.5466 11.0887 15.4458 11.0761C15.3675 11.0681 15.2887 11.0751 15.2086 11.0751C15.2095 11.0854 15.2109 11.0976 15.2109 11.1094C15.2573 11.1323 15.3042 11.1562 15.3675 11.1862H14.9137" fill="#7B4022"/>
<path fill-rule="evenodd" clip-rule="evenodd" d="M14.9447 10.7681H15.3328V10.8098H14.9447V10.7681Z" fill="#FDD12E"/>
<path fill-rule="evenodd" clip-rule="evenodd" d="M14.7755 9.8339C14.7234 9.87046 14.6916 9.9089 14.663 9.90703C14.633 9.90468 14.6039 9.86531 14.5744 9.84046C14.6034 9.81093 14.6288 9.7664 14.663 9.75656C14.6859 9.74999 14.7225 9.79546 14.7755 9.8339Z" fill="#FDD12E"/>
<path fill-rule="evenodd" clip-rule="evenodd" d="M15.5766 9.95625C15.5611 9.91922 15.5292 9.87843 15.5353 9.84422C15.5414 9.80953 15.5855 9.78187 15.6131 9.7514C15.6413 9.77719 15.6849 9.79969 15.6924 9.82922C15.697 9.8564 15.6577 9.89156 15.6389 9.92297C15.618 9.93388 15.5973 9.94497 15.5766 9.95625Z" fill="#FDD12E"/>
</svg>
